<mxfile host="app.diagrams.net" agent="Mozilla/5.0 (Windows NT 10.0; Win64; x64) AppleWebKit/537.36 (KHTML, like Gecko) Chrome/130.0.0.0 Safari/537.36" version="24.8.3">
  <diagram name="Page-1" id="_u_mMkop7DPUTGixg3VT">
    <mxGraphModel dx="840" dy="446" grid="1" gridSize="10" guides="1" tooltips="1" connect="1" arrows="1" fold="1" page="1" pageScale="1" pageWidth="850" pageHeight="1100" math="0" shadow="0">
      <root>
        <mxCell id="0" />
        <mxCell id="1" parent="0" />
        <mxCell id="an5TMm85rVzCIox5hMEu-1" value="Murid" style="shape=umlActor;verticalLabelPosition=bottom;verticalAlign=top;html=1;outlineConnect=0;fillColor=none;fontStyle=1" parent="1" vertex="1">
          <mxGeometry x="80" y="90" width="30" height="60" as="geometry" />
        </mxCell>
        <mxCell id="an5TMm85rVzCIox5hMEu-2" value="Guru" style="shape=umlActor;verticalLabelPosition=bottom;verticalAlign=top;html=1;outlineConnect=0;fillColor=none;fontStyle=1" parent="1" vertex="1">
          <mxGeometry x="630" y="370" width="30" height="60" as="geometry" />
        </mxCell>
        <mxCell id="an5TMm85rVzCIox5hMEu-7" value="" style="rounded=0;whiteSpace=wrap;html=1;fillColor=none;fontStyle=1" parent="1" vertex="1">
          <mxGeometry x="200" y="40" width="360" height="630" as="geometry" />
        </mxCell>
        <mxCell id="an5TMm85rVzCIox5hMEu-8" value="EduDoExam" style="text;html=1;align=center;verticalAlign=middle;whiteSpace=wrap;rounded=0;fillColor=none;fontStyle=1" parent="1" vertex="1">
          <mxGeometry x="200" y="40" width="130" height="20" as="geometry" />
        </mxCell>
        <mxCell id="an5TMm85rVzCIox5hMEu-9" value="Mengerjakan soal" style="ellipse;whiteSpace=wrap;html=1;fontFamily=Times New Roman;fontSize=10;fillColor=none;fontStyle=1" parent="1" vertex="1">
          <mxGeometry x="240" y="120" width="160" height="50" as="geometry" />
        </mxCell>
        <mxCell id="an5TMm85rVzCIox5hMEu-10" value="Mengakses camera" style="ellipse;whiteSpace=wrap;html=1;fontFamily=Times New Roman;fontSize=10;fillColor=none;fontStyle=1" parent="1" vertex="1">
          <mxGeometry x="380" y="240" width="160" height="50" as="geometry" />
        </mxCell>
        <mxCell id="an5TMm85rVzCIox5hMEu-11" value="Mendapatkan rekomendasi soal selanjutnya" style="ellipse;whiteSpace=wrap;html=1;fontFamily=Times New Roman;fontSize=10;fillColor=none;fontStyle=1" parent="1" vertex="1">
          <mxGeometry x="240" y="280" width="160" height="50" as="geometry" />
        </mxCell>
        <mxCell id="an5TMm85rVzCIox5hMEu-12" value="Melihat performa pengerjaan soal setelah mengerjakan melalui diagram" style="ellipse;whiteSpace=wrap;html=1;fontFamily=Times New Roman;fontSize=10;fillColor=none;fontStyle=1" parent="1" vertex="1">
          <mxGeometry x="360" y="320" width="200" height="70" as="geometry" />
        </mxCell>
        <mxCell id="an5TMm85rVzCIox5hMEu-13" value="Melihat peraturan pengerjaan soal" style="ellipse;whiteSpace=wrap;html=1;fontFamily=Times New Roman;fontSize=10;fillColor=none;fontStyle=1" parent="1" vertex="1">
          <mxGeometry x="380" y="160" width="160" height="50" as="geometry" />
        </mxCell>
        <mxCell id="an5TMm85rVzCIox5hMEu-14" value="Memilih mata pelajaran" style="ellipse;whiteSpace=wrap;html=1;fontFamily=Times New Roman;fontSize=10;fillColor=none;fontStyle=1" parent="1" vertex="1">
          <mxGeometry x="240" y="200" width="160" height="50" as="geometry" />
        </mxCell>
        <mxCell id="an5TMm85rVzCIox5hMEu-15" value="Daftar / Login" style="ellipse;whiteSpace=wrap;html=1;fontFamily=Times New Roman;fontSize=10;fillColor=none;fontStyle=1" parent="1" vertex="1">
          <mxGeometry x="380" y="80" width="160" height="50" as="geometry" />
        </mxCell>
        <mxCell id="an5TMm85rVzCIox5hMEu-22" value="Akses data kinerja performa setiap siswa (Menampilkan, merekap, dan menyimpan data ke penyimpanan lokal)" style="ellipse;whiteSpace=wrap;html=1;fontFamily=Times New Roman;fontSize=10;fillColor=none;fontStyle=1" parent="1" vertex="1">
          <mxGeometry x="210" y="450" width="250" height="100" as="geometry" />
        </mxCell>
        <mxCell id="an5TMm85rVzCIox5hMEu-23" value="Membuat sesi ulangan (menambahkan sesi, setting waktu mulai pengerjaan (due date), setting lama pengerjaan, menghapus sesi )" style="ellipse;whiteSpace=wrap;html=1;fontFamily=Times New Roman;fontSize=10;fillColor=none;fontStyle=1" parent="1" vertex="1">
          <mxGeometry x="300" y="550" width="253" height="100" as="geometry" />
        </mxCell>
        <mxCell id="an5TMm85rVzCIox5hMEu-24" value="" style="endArrow=none;html=1;rounded=0;exitX=1;exitY=0.3333333333333333;exitDx=0;exitDy=0;exitPerimeter=0;fontStyle=1" parent="1" source="an5TMm85rVzCIox5hMEu-1" target="an5TMm85rVzCIox5hMEu-15" edge="1">
          <mxGeometry width="50" height="50" relative="1" as="geometry">
            <mxPoint x="120" y="140" as="sourcePoint" />
            <mxPoint x="390" y="40" as="targetPoint" />
            <Array as="points">
              <mxPoint x="220" y="105" />
            </Array>
          </mxGeometry>
        </mxCell>
        <mxCell id="an5TMm85rVzCIox5hMEu-25" value="" style="endArrow=none;html=1;rounded=0;exitX=1;exitY=0.3333333333333333;exitDx=0;exitDy=0;exitPerimeter=0;fontStyle=1" parent="1" source="an5TMm85rVzCIox5hMEu-1" target="an5TMm85rVzCIox5hMEu-9" edge="1">
          <mxGeometry width="50" height="50" relative="1" as="geometry">
            <mxPoint x="180" y="130" as="sourcePoint" />
            <mxPoint x="371" y="119" as="targetPoint" />
          </mxGeometry>
        </mxCell>
        <mxCell id="an5TMm85rVzCIox5hMEu-26" value="" style="endArrow=none;html=1;rounded=0;entryX=0;entryY=0.5;entryDx=0;entryDy=0;exitX=1;exitY=0.3333333333333333;exitDx=0;exitDy=0;exitPerimeter=0;fontStyle=1" parent="1" source="an5TMm85rVzCIox5hMEu-1" target="an5TMm85rVzCIox5hMEu-13" edge="1">
          <mxGeometry width="50" height="50" relative="1" as="geometry">
            <mxPoint x="190" y="140" as="sourcePoint" />
            <mxPoint x="381" y="129" as="targetPoint" />
            <Array as="points">
              <mxPoint x="260" y="180" />
            </Array>
          </mxGeometry>
        </mxCell>
        <mxCell id="an5TMm85rVzCIox5hMEu-27" value="" style="endArrow=none;html=1;rounded=0;exitX=1;exitY=1;exitDx=0;exitDy=0;exitPerimeter=0;fontStyle=1" parent="1" source="an5TMm85rVzCIox5hMEu-1" target="an5TMm85rVzCIox5hMEu-14" edge="1">
          <mxGeometry width="50" height="50" relative="1" as="geometry">
            <mxPoint x="180" y="147" as="sourcePoint" />
            <mxPoint x="370" y="195" as="targetPoint" />
            <Array as="points">
              <mxPoint x="160" y="170" />
              <mxPoint x="210" y="190" />
            </Array>
          </mxGeometry>
        </mxCell>
        <mxCell id="an5TMm85rVzCIox5hMEu-28" value="" style="endArrow=none;html=1;rounded=0;entryX=0;entryY=0.5;entryDx=0;entryDy=0;exitX=1;exitY=1;exitDx=0;exitDy=0;exitPerimeter=0;fontStyle=1" parent="1" source="an5TMm85rVzCIox5hMEu-1" target="an5TMm85rVzCIox5hMEu-10" edge="1">
          <mxGeometry width="50" height="50" relative="1" as="geometry">
            <mxPoint x="180" y="170" as="sourcePoint" />
            <mxPoint x="259" y="224" as="targetPoint" />
            <Array as="points">
              <mxPoint x="200" y="230" />
              <mxPoint x="240" y="260" />
            </Array>
          </mxGeometry>
        </mxCell>
        <mxCell id="an5TMm85rVzCIox5hMEu-29" value="" style="endArrow=none;html=1;rounded=0;entryX=0;entryY=0.5;entryDx=0;entryDy=0;exitX=1;exitY=1;exitDx=0;exitDy=0;exitPerimeter=0;fontStyle=1" parent="1" source="an5TMm85rVzCIox5hMEu-1" target="an5TMm85rVzCIox5hMEu-11" edge="1">
          <mxGeometry width="50" height="50" relative="1" as="geometry">
            <mxPoint x="120" y="140" as="sourcePoint" />
            <mxPoint x="370" y="275" as="targetPoint" />
            <Array as="points">
              <mxPoint x="160" y="250" />
              <mxPoint x="190" y="290" />
              <mxPoint x="210" y="300" />
            </Array>
          </mxGeometry>
        </mxCell>
        <mxCell id="an5TMm85rVzCIox5hMEu-30" value="" style="endArrow=none;html=1;rounded=0;entryX=0;entryY=0.5;entryDx=0;entryDy=0;exitX=1;exitY=1;exitDx=0;exitDy=0;exitPerimeter=0;fontStyle=1" parent="1" source="an5TMm85rVzCIox5hMEu-1" target="an5TMm85rVzCIox5hMEu-12" edge="1">
          <mxGeometry width="50" height="50" relative="1" as="geometry">
            <mxPoint x="104" y="170" as="sourcePoint" />
            <mxPoint x="210" y="315" as="targetPoint" />
            <Array as="points">
              <mxPoint x="140" y="260" />
              <mxPoint x="150" y="300" />
              <mxPoint x="190" y="330" />
            </Array>
          </mxGeometry>
        </mxCell>
        <mxCell id="an5TMm85rVzCIox5hMEu-32" value="" style="endArrow=none;html=1;rounded=0;exitX=1;exitY=0.5;exitDx=0;exitDy=0;entryX=0;entryY=0.3333333333333333;entryDx=0;entryDy=0;entryPerimeter=0;fontStyle=1" parent="1" source="an5TMm85rVzCIox5hMEu-15" target="an5TMm85rVzCIox5hMEu-2" edge="1">
          <mxGeometry width="50" height="50" relative="1" as="geometry">
            <mxPoint x="500" y="120" as="sourcePoint" />
            <mxPoint x="750" y="115" as="targetPoint" />
            <Array as="points">
              <mxPoint x="570" y="200" />
            </Array>
          </mxGeometry>
        </mxCell>
        <mxCell id="an5TMm85rVzCIox5hMEu-34" value="" style="endArrow=none;html=1;rounded=0;exitX=1;exitY=0.5;exitDx=0;exitDy=0;entryX=0;entryY=0.3333333333333333;entryDx=0;entryDy=0;entryPerimeter=0;fontStyle=1" parent="1" source="an5TMm85rVzCIox5hMEu-22" target="an5TMm85rVzCIox5hMEu-2" edge="1">
          <mxGeometry width="50" height="50" relative="1" as="geometry">
            <mxPoint x="530" y="115" as="sourcePoint" />
            <mxPoint x="640" y="400" as="targetPoint" />
            <Array as="points" />
          </mxGeometry>
        </mxCell>
        <mxCell id="an5TMm85rVzCIox5hMEu-35" value="" style="endArrow=none;html=1;rounded=0;exitX=1;exitY=0;exitDx=0;exitDy=0;entryX=0;entryY=0.3333333333333333;entryDx=0;entryDy=0;entryPerimeter=0;fontStyle=1" parent="1" source="an5TMm85rVzCIox5hMEu-23" target="an5TMm85rVzCIox5hMEu-2" edge="1">
          <mxGeometry width="50" height="50" relative="1" as="geometry">
            <mxPoint x="430" y="415" as="sourcePoint" />
            <mxPoint x="640" y="400" as="targetPoint" />
            <Array as="points" />
          </mxGeometry>
        </mxCell>
        <mxCell id="mcIR8lyk40jzvZubi5-6-2" value="Mendapatkan notifikasi reminder untuk mengerjakan ulangan" style="ellipse;whiteSpace=wrap;html=1;fontFamily=Times New Roman;fontSize=10;fillColor=none;fontStyle=1" vertex="1" parent="1">
          <mxGeometry x="240" y="390" width="160" height="50" as="geometry" />
        </mxCell>
        <mxCell id="mcIR8lyk40jzvZubi5-6-3" value="" style="endArrow=none;html=1;rounded=0;entryX=0;entryY=0.5;entryDx=0;entryDy=0;fontStyle=1;exitX=1;exitY=1;exitDx=0;exitDy=0;exitPerimeter=0;" edge="1" parent="1" source="an5TMm85rVzCIox5hMEu-1" target="mcIR8lyk40jzvZubi5-6-2">
          <mxGeometry width="50" height="50" relative="1" as="geometry">
            <mxPoint x="120" y="150" as="sourcePoint" />
            <mxPoint x="370" y="365" as="targetPoint" />
            <Array as="points">
              <mxPoint x="120" y="280" />
              <mxPoint x="140" y="350" />
            </Array>
          </mxGeometry>
        </mxCell>
      </root>
    </mxGraphModel>
  </diagram>
</mxfile>
